<svg width="48" height="47" viewBox="0 0 48 47" fill="none" xmlns="http://www.w3.org/2000/svg">
<path d="M24.0002 0C10.7469 0 0 10.7451 0 24.0002C0 34.6041 6.87675 43.6005 16.4128 46.7739C17.6123 46.9961 18.0527 46.2533 18.0527 45.6193C18.0527 45.0471 18.0302 43.1565 18.0201 41.1512C11.3432 42.6028 9.93431 38.3194 9.93431 38.3194C8.8425 35.5453 7.26937 34.8075 7.26937 34.8075C5.09194 33.318 7.43363 33.3488 7.43363 33.3488C9.84356 33.5179 11.1126 35.8219 11.1126 35.8219C13.2533 39.4909 16.7272 38.4302 18.0968 37.8169C18.3122 36.2659 18.9341 35.2069 19.6206 34.6076C14.2897 34.0009 8.68594 31.9429 8.68594 22.7467C8.68594 20.1264 9.62344 17.9854 11.1587 16.3046C10.9095 15.7001 10.0881 13.2592 11.3912 9.95325C11.3912 9.95325 13.4066 9.30825 17.9931 12.4134C19.9074 11.8817 21.9606 11.6151 24.0002 11.6059C26.0398 11.6151 28.0946 11.8815 30.0126 12.4134C34.5934 9.30844 36.606 9.95344 36.606 9.95344C37.9123 13.2591 37.0905 15.7003 36.8413 16.3046C38.3801 17.9854 39.3112 20.1264 39.3112 22.7467C39.3112 31.9648 33.6968 33.9945 28.3524 34.5887C29.2132 35.3334 29.9803 36.7941 29.9803 39.0332C29.9803 42.2443 29.9526 44.8288 29.9526 45.6193C29.9526 46.2581 30.3846 47.0064 31.6011 46.7706C41.1319 43.5938 48 34.6007 48 24.0004C48 10.7451 37.2546 0 24.0002 0ZM8.98894 34.1888C8.93606 34.308 8.74837 34.3438 8.57756 34.2619C8.40338 34.1837 8.30569 34.0211 8.36194 33.9015C8.41369 33.7787 8.60175 33.7444 8.77537 33.8267C8.94975 33.9051 9.04913 34.0691 8.98894 34.1888ZM10.1694 35.2421C10.0551 35.3482 9.83119 35.2989 9.67931 35.1313C9.52238 34.9641 9.49294 34.7402 9.609 34.6326C9.72713 34.5264 9.94406 34.5761 10.1014 34.7434C10.2585 34.9127 10.2889 35.1349 10.1694 35.2421ZM10.9794 36.5899C10.8322 36.6921 10.5919 36.5963 10.4432 36.3829C10.2962 36.1695 10.2962 35.9136 10.4464 35.811C10.5954 35.7084 10.8323 35.8007 10.9828 36.0126C11.1294 36.2295 11.1294 36.4854 10.9792 36.5901L10.9794 36.5899ZM12.3489 38.1508C12.2175 38.2959 11.9372 38.2569 11.7321 38.0589C11.5223 37.8654 11.4639 37.5909 11.5959 37.4458C11.7291 37.3003 12.0109 37.3412 12.2175 37.5377C12.4256 37.7308 12.4894 38.0074 12.3489 38.1508ZM14.1193 38.6777C14.0612 38.8657 13.7912 38.9512 13.5195 38.8714C13.248 38.7891 13.0704 38.5689 13.1252 38.379C13.1816 38.1896 13.4528 38.1007 13.7265 38.1862C13.9976 38.268 14.1758 38.4866 14.1193 38.6779V38.6777ZM16.1338 38.9014C16.1406 39.0992 15.9101 39.2632 15.6248 39.267C15.3379 39.2734 15.1056 39.1133 15.1024 38.9183C15.1024 38.7186 15.3278 38.556 15.6148 38.5511C15.9002 38.5455 16.1338 38.7045 16.1338 38.9014ZM18.1129 38.8254C18.147 39.0186 17.9488 39.2169 17.6653 39.2698C17.3869 39.3206 17.1289 39.2014 17.0934 39.0099C17.0589 38.8119 17.2609 38.6136 17.5389 38.5624C17.8228 38.5131 18.0767 38.6291 18.1129 38.8254Z" fill="#161614"/>
</svg>
