<svg width="48" height="40" viewBox="0 0 48 40" fill="none" xmlns="http://www.w3.org/2000/svg">
<path d="M48 4.61775C46.2337 5.40094 44.3359 5.93025 42.3439 6.16838C44.3773 4.94963 45.9386 3.01969 46.6738 0.720187C44.7408 1.86728 42.6259 2.67549 40.4205 3.10987C38.6241 1.19606 36.0649 0 33.2323 0C27.7937 0 23.3843 4.40925 23.3843 9.8475C23.3843 10.6194 23.4714 11.3709 23.6392 12.0919C15.4549 11.6811 8.19862 7.76062 3.34144 1.80262C2.49394 3.25706 2.00831 4.94887 2.00831 6.75337C2.00831 10.17 3.747 13.1841 6.38925 14.9501C4.82541 14.9011 3.29597 14.4788 1.92863 13.7182C1.92806 13.7595 1.92806 13.8007 1.92806 13.8422C1.92806 18.6135 5.32256 22.5938 9.82744 23.4984C8.37729 23.8928 6.85618 23.9505 5.38031 23.6672C6.63338 27.5796 10.2703 30.4266 14.5794 30.5062C11.2091 33.1474 6.96281 34.7218 2.34919 34.7218C1.55419 34.7218 0.770438 34.6751 0 34.5842C4.35806 37.3783 9.53438 39.0086 15.0956 39.0086C33.2094 39.0086 43.1145 24.0028 43.1145 10.9896C43.1145 10.5624 43.1051 10.1377 43.086 9.7155C45.0139 8.32178 46.678 6.59553 48 4.61775Z" fill="#55ACEE"/>
</svg>
